# xmcd CD Database Entry
#
# Track frame offsets:
# 150
# 12222
# 33606
# 47655
# 63748
# 89508
# 111500
# 126134
# 144062
# 153120
# 169281
# 188575
# 205634
# 223579
# 235464
# 249134
# 272103
# 286148
# 306665
# 331898
#
# Disc length: 4773 seconds
#
# Revision: 1
# Processed by: cddbd v1.4PL0 Copyright (c) Steve Scherf et al.
# Submitted via: tcd 2.0b
#
DISCID=2112a314
DTITLE=BanjoRoom - Songs To Learn vol.4
DYEAR=1900
DGENRE=
TTITLE0=Gimme Dat Thang
TTITLE1=I'm Ragged But I'm Right
TTITLE2=Sittin' On Top Of The World
TTITLE3=My Gal
TTITLE4=Yes She Do, No She Don't
TTITLE5=The Walls Of Time - New
TTITLE6=Cumberland Blues - Old
TTITLE7=You Win Again
TTITLE8=Foggy Mtn Special
TTITLE9=Too Old To Die Young
TTITLE10=The Walls Of Time - Old
TTITLE11=Blackjack County Chains
TTITLE12=Get Down on Your Knees and Pray
TTITLE13=I've Been All Around This World
TTITLE14=Sleep With One Eye Open from Now On
TTITLE15=Minor Swing
TTITLE16=
TTITLE17=The Hobo Song
TTITLE18=Cumberland Blues - New
TTITLE19=
EXTD=
EXTT0=
EXTT1=
EXTT2=
EXTT3=
EXTT4=
EXTT5=
EXTT6=
EXTT7=
EXTT8=
EXTT9=
EXTT10=
EXTT11=
EXTT12=
EXTT13=
EXTT14=
EXTT15=
EXTT16=
EXTT17=
EXTT18=
EXTT19=
PLAYORDER=
